Patient4_TMGait_0pt2_01_right_22_GRF.mot
version=1
nRows=65
nColumns=19
inDegrees=no
endheader
time	F1x	F1y	F1z	M1x	M1y	M1z	F2x	F2y	F2z	M2x	M2y	M2z	EC1x	EC1y	EC1z	EC2x	EC2y	EC2z
49.44	-20.1854	826.341	49.4453	-309.0241	-55.9418	814.6798	-8.7947	4.3702	-0.29835	2.3188	1.5404	2.781	-0.0592	0.0182	-0.0073	-0.0462	0.0165	0.9585
49.462	-18.5756	835.2848	50.3472	-312.4052	-55.56	821.1509	-6.2014	4.252	-0.41036	2.0665	1.3646	3.1875	-0.0592	0.0182	-0.0073	-0.0462	0.0165	0.9585
49.484	-16.6788	842.7681	51.459	-315.1226	-55.2265	825.6721	-3.8602	3.9531	-0.44549	1.7794	1.1151	3.3674	-0.0592	0.0182	-0.0073	-0.0462	0.0165	0.9585
49.506	-14.4	846.83	52.6868	-316.4224	-54.8653	826.4194	-1.9826	3.6067	-0.43177	1.5147	0.85886	3.4162	-0.0592	0.0182	-0.0073	-0.0462	0.0165	0.9585
49.528	-11.6197	846.0199	53.8742	-315.7755	-54.3168	822.0681	-0.62092	3.2898	-0.39139	1.2998	0.63537	3.3957	-0.0592	0.0182	-0.0073	-0.0462	0.0165	0.9585
49.55	-8.2996	839.8332	54.804	-313.0415	-53.3739	812.215	0.26644	3.0267	-0.34015	1.1379	0.46264	3.3309	-0.0592	0.0182	-0.0073	-0.0462	0.0165	0.9585
49.572	-4.534	828.853	55.2303	-308.5095	-51.8367	797.5154	0.7665	2.8001	-0.28772	1.0141	0.34396	3.2187	-0.0592	0.0182	-0.0073	-0.0462	0.0165	0.9585
49.594	-0.49152	814.587	54.9483	-302.8127	-49.5607	779.503	0.98286	2.5613	-0.23873	0.902	0.27124	3.0281	-0.0592	0.0182	-0.0073	-0.0462	0.0165	0.9585
49.616	3.6616	799.0566	53.8734	-296.7528	-46.5112	760.1779	1.0138	2.2378	-0.19456	0.76901	0.23076	2.7001	-0.0592	0.0182	-0.0073	-0.0462	0.0165	0.9585
49.638	7.797	784.3065	52.0589	-291.1106	-42.7774	741.5365	0.94258	1.7439	-0.15346	0.57934	0.2054	2.1597	-0.0592	0.0182	-0.0073	-0.0462	0.0165	0.9585
49.66	11.8366	771.9239	49.676	-286.4727	-38.5489	725.1276	0.83686	0.99241	-0.11226	0.29802	0.17629	1.3256	-0.0592	0.0182	-0.0073	-0.0462	0.0165	0.9585
49.682	15.7412	762.7281	46.9754	-283.1225	-34.0791	711.7712	0.74938	-0.08546	-0.065629	-0.10244	0.12442	0.13515	-0.0592	0.0182	-0.0073	-0.0462	0.0165	0.9585
49.704	19.5122	756.7668	44.2354	-281.0436	-29.6344	701.5499	0.72146	-1.5097	-0.0064306	-0.63029	0.029694	-1.425	-0.0592	0.0182	-0.0073	-0.0462	0.0165	0.9585
49.726	23.1861	753.5243	41.7125	-280.0056	-25.4496	694.0094	0.78782	-3.2109	0.075572	-1.2611	-0.13003	-3.282	-0.0592	0.0182	-0.0073	-0.0462	0.0165	0.9585
49.748	26.8021	752.2017	39.62	-279.6737	-21.7184	688.4355	0.97673	-4.9805	0.19092	-1.9187	-0.3749	-5.2157	-0.0592	0.0182	-0.0073	-0.0462	0.0165	0.9585
49.77	30.3723	751.9734	38.1152	-279.7084	-18.5905	684.1081	1.3082	-6.4108	0.34754	-2.4516	-0.71696	-6.7938	-0.0592	0.0182	-0.0073	-0.0462	0.0165	0.9585
49.792	33.8751	752.1366	37.2837	-279.8203	-16.1595	680.4472	1.7867	-6.8309	0.54229	-2.608	-1.1485	-7.298	-0.0592	0.0182	-0.0073	-0.0462	0.0165	0.9585
49.814	37.2364	752.0573	37.1356	-279.7496	-14.4695	676.9664	2.3898	-5.2618	0.75366	-2.0188	-1.6286	-5.6728	-0.0592	0.0182	-0.0073	-0.0462	0.0165	0.9585
49.836	40.3018	750.9662	37.6116	-279.1891	-13.531	673.0914	3.047	-0.41011	0.93402	-0.19388	-2.0675	-0.51876	-0.0592	0.0182	-0.0073	-0.0462	0.0165	0.9585
49.858	42.8496	747.7896	38.5693	-277.7266	-13.3047	667.9834	3.6191	9.2691	1.0047	3.4532	-2.3159	9.8401	-0.0592	0.0182	-0.0073	-0.0462	0.0165	0.9585
49.88	44.6318	741.0821	39.7847	-274.8235	-13.6902	660.4476	3.8763	25.3873	0.84937	9.5353	-2.1528	27.1596	-0.0592	0.0182	-0.0073	-0.0462	0.0165	0.9585
49.902	45.4211	729.1159	40.9759	-269.8509	-14.5278	648.995	3.476	49.2574	0.31057	18.5528	-1.2701	52.8867	-0.0592	0.0182	-0.0073	-0.0462	0.0165	0.9585
49.924	45.0362	710.1645	41.838	-262.1932	-15.617	632.0967	1.9619	81.2984	-0.80313	30.6698	0.72171	87.5189	-0.0592	0.0182	-0.0073	-0.0462	0.0165	0.9585
49.946	43.3817	683.0014	42.091	-251.4247	-16.7417	608.6206	-1.0223	120.4221	-2.6711	45.4804	4.1583	129.9324	-0.0592	0.0182	-0.0073	-0.0462	0.0165	0.9585
49.968	40.5172	647.6029	41.5386	-237.5675	-17.6978	578.4445	-5.3099	163.8569	-5.409	61.9335	9.0927	177.1655	-0.0592	0.0182	-0.0073	-0.0462	0.0165	0.9585
49.99	36.7079	605.6881	40.1367	-221.2893	-18.3342	542.9248	-10.4025	208.1325	-8.8708	78.7166	15.1453	225.4878	-0.0592	0.0182	-0.0073	-0.0462	0.0165	0.9585
50.012	32.4072	560.5225	38.0145	-203.8304	-18.5734	504.7301	-15.8179	250.9676	-12.5765	94.9805	21.5902	272.4671	-0.0592	0.0182	-0.0073	-0.0462	0.0165	0.9585
50.034	28.1439	515.7854	35.3896	-186.5903	-18.3813	466.8716	-21.2294	291.3071	-15.9391	110.3428	27.655	317.002	-0.0592	0.0182	-0.0073	-0.0462	0.0165	0.9585
50.056	24.3681	474.3257	32.4841	-170.6662	-17.756	431.646	-26.3806	328.5222	-18.5315	124.5643	32.7694	358.4166	-0.0592	0.0182	-0.0073	-0.0462	0.0165	0.9585
50.078	21.335	437.5463	29.5063	-156.6081	-16.758	400.1348	-30.9884	361.9071	-20.2411	137.3481	36.6847	395.8913	-0.0592	0.0182	-0.0073	-0.0462	0.0165	0.9585
50.1	19.0819	405.4894	26.66	-144.4424	-15.5308	372.3081	-34.7588	390.6312	-21.2131	148.3357	39.422	428.4086	-0.0592	0.0182	-0.0073	-0.0462	0.0165	0.9585
50.122	17.5077	377.4501	24.1155	-133.8989	-14.2487	347.5576	-37.4571	414.1477	-21.6608	157.2849	41.1072	455.1988	-0.0592	0.0182	-0.0073	-0.0462	0.0165	0.9585
50.144	16.4817	352.6494	21.9672	-124.6673	-13.0375	325.268	-38.9497	432.6493	-21.7251	164.2586	41.8413	476.2575	-0.0592	0.0182	-0.0073	-0.0462	0.0165	0.9585
50.166	15.8875	330.5748	20.2146	-116.5333	-11.9418	305.093	-39.2317	447.1301	-21.5012	169.6443	41.7353	492.4553	-0.0592	0.0182	-0.0073	-0.0462	0.0165	0.9585
50.188	15.6156	310.9501	18.7907	-109.3733	-10.9499	286.9057	-38.4236	459.0712	-21.117	174.021	40.9866	505.2455	-0.0592	0.0182	-0.0073	-0.0462	0.0165	0.9585
50.21	15.5576	293.5038	17.6042	-103.0707	-10.0334	270.5642	-36.7109	469.9761	-20.7428	177.9733	39.8628	516.1698	-0.0592	0.0182	-0.0073	-0.0462	0.0165	0.9585
50.232	15.6057	277.7383	16.5727	-97.4319	-9.1734	255.7003	-34.2787	481.02	-20.5439	181.9582	38.6221	526.4698	-0.0592	0.0182	-0.0073	-0.0462	0.0165	0.9585
50.254	15.6345	262.8177	15.6217	-92.1464	-8.3611	241.6232	-31.2917	492.9594	-20.634	186.2699	37.455	536.9883	-0.0592	0.0182	-0.0073	-0.0462	0.0165	0.9585
50.276	15.494	247.5684	14.6718	-86.7848	-7.5871	227.318	-27.921	506.2933	-21.071	191.1008	36.4889	548.3448	-0.0592	0.0182	-0.0073	-0.0462	0.0165	0.9585
50.298	15.0243	230.6779	13.6356	-80.87	-6.8373	211.6179	-24.375	521.5008	-21.896	196.6265	35.8415	561.1729	-0.0592	0.0182	-0.0073	-0.0462	0.0165	0.9585
50.32	14.0718	211.0694	12.4413	-74.0101	-6.1099	193.5506	-20.8959	539.1574	-23.156	203.0535	35.646	576.2252	-0.0592	0.0182	-0.0073	-0.0462	0.0165	0.9585
50.342	12.523	188.2512	11.0689	-66.0222	-5.434	172.6625	-17.7292	559.8684	-24.8687	210.6038	36.0106	594.2892	-0.0592	0.0182	-0.0073	-0.0462	0.0165	0.9585
50.364	10.3526	162.5088	9.5591	-57.0007	-4.8597	149.1907	-15.084	583.9976	-26.988	219.4215	36.9701	615.887	-0.0592	0.0182	-0.0073	-0.0462	0.0165	0.9585
50.386	7.6779	134.9101	7.9996	-47.3193	-4.4256	124.0598	-13.092	611.3266	-29.3923	229.4534	38.4608	640.9002	-0.0592	0.0182	-0.0073	-0.0462	0.0165	0.9585
50.408	4.7666	107.0578	6.4983	-37.5421	-4.1313	98.668	-11.7942	640.9043	-31.8756	240.3901	40.3035	668.4026	-0.0592	0.0182	-0.0073	-0.0462	0.0165	0.9585
50.43	1.9637	80.625	5.1403	-28.2593	-3.9265	74.4987	-11.1738	671.2832	-34.1754	251.7421	42.2424	696.9122	-0.0592	0.0182	-0.0073	-0.0462	0.0165	0.9585
50.452	-0.40417	56.9707	3.9593	-19.9529	-3.7212	52.7886	-11.204	701.0492	-36.0472	263.0201	44.0352	724.9563	-0.0592	0.0182	-0.0073	-0.0462	0.0165	0.9585
50.474	-2.0818	37.0098	2.9473	-12.9478	-3.4169	34.397	-11.8593	729.3456	-37.301	273.9195	45.4811	751.6225	-0.0592	0.0182	-0.0073	-0.0462	0.0165	0.9585
50.496	-2.9277	21.2119	2.0889	-7.4086	-2.9502	19.7823	-13.0871	756.0198	-37.8242	284.37	46.4303	776.7117	-0.0592	0.0182	-0.0073	-0.0462	0.0165	0.9585
50.518	-3.0325	9.6332	1.3863	-3.3515	-2.3572	9.0242	-14.7739	781.2736	-37.6162	294.4076	46.8088	800.385	-0.0592	0.0182	-0.0073	-0.0462	0.0165	0.9585
50.54	-2.6942	1.9273	0.85987	-0.65306	-1.762	1.838	-16.7214	805.1265	-36.7789	303.9836	46.6095	822.6164	-0.0592	0.0182	-0.0073	-0.0462	0.0165	0.9585
50.562	-2.1688	-2.6091	0.50373	0.93309	-1.2497	-2.4022	-18.6405	826.975	-35.4917	312.8063	45.8716	842.7397	-0.0592	0.0182	-0.0073	-0.0462	0.0165	0.9585
50.584	-1.6222	-4.8037	0.28888	1.6987	-0.85696	-4.4614	-20.1905	845.4226	-33.9772	320.2837	44.6691	859.286	-0.0592	0.0182	-0.0073	-0.0462	0.0165	0.9585
50.606	-1.1473	-5.4372	0.18272	1.9187	-0.59219	-5.0614	-21.0744	858.5999	-32.4491	325.6546	43.0922	870.327	-0.0592	0.0182	-0.0073	-0.0462	0.0165	0.9585
50.628	-0.78304	-5.1578	0.15477	1.8208	-0.44261	-4.8002	-21.0932	864.7972	-31.0844	328.2335	41.243	874.1258	-0.0592	0.0182	-0.0073	-0.0462	0.0165	0.9585
50.65	-0.53396	-4.4549	0.17817	1.5766	-0.3859	-4.1369	-20.1456	863.1492	-30.0009	327.6731	39.2156	869.8167	-0.0592	0.0182	-0.0073	-0.0462	0.0165	0.9585
50.672	-0.38908	-3.6714	0.23072	1.3052	-0.39759	-3.3973	-18.2253	854.069	-29.2473	324.1275	37.0833	857.834	-0.0592	0.0182	-0.0073	-0.0462	0.0165	0.9585
50.694	-0.33084	-3.0288	0.29542	1.0841	-0.45423	-2.7939	-15.4252	839.1793	-28.8167	318.2229	34.9094	839.8506	-0.0592	0.0182	-0.0073	-0.0462	0.0165	0.9585
50.716	-0.33385	-2.6521	0.35863	0.95856	-0.53423	-2.4527	-11.9321	820.8528	-28.6705	310.8786	32.7643	818.3229	-0.0592	0.0182	-0.0073	-0.0462	0.0165	0.9585
50.738	-0.36826	-2.5973	0.4088	0.94866	-0.61453	-2.4376	-7.9928	801.6054	-28.7558	303.0745	30.7256	795.8709	-0.0592	0.0182	-0.0073	-0.0462	0.0165	0.9585
50.76	-0.40305	-2.8652	0.43318	1.0543	-0.66779	-2.7592	-3.864	783.5825	-29.0048	295.6515	28.8524	774.747	-0.0592	0.0182	-0.0073	-0.0462	0.0165	0.9585
50.782	-0.4002	-3.3999	0.41628	1.2556	-0.66154	-3.3694	0.20012	768.2628	-29.3495	289.1963	27.1915	756.5337	-0.0592	0.0182	-0.0073	-0.0462	0.0165	0.9585
50.804	-0.31172	-4.0815	0.34259	1.5085	-0.56072	-4.151	3.9665	756.4233	-29.7364	284.0269	25.7868	742.0929	-0.0592	0.0182	-0.0073	-0.0462	0.0165	0.9585
50.826	-0.080758	-4.7087	0.19203	1.7375	-0.32364	-4.8952	7.2603	748.2285	-30.1394	280.2272	24.6824	731.6452	-0.0592	0.0182	-0.0073	-0.0462	0.0165	0.9585
50.848	0.35145	-4.972	-0.061411	1.8277	0.098598	-5.2719	9.9796	743.3691	-30.5605	277.701	23.9164	724.8939	-0.0592	0.0182	-0.0073	-0.0462	0.0165	0.9585
